<mxfile host="app.diagrams.net" agent="Mozilla/5.0 (Windows NT 10.0; Win64; x64) AppleWebKit/537.36 (KHTML, like Gecko) Chrome/138.0.0.0 Safari/537.36" version="28.0.6">
  <diagram name="Halaman-1" id="0xkd0_zbIvf2wIhmGBbi">
    <mxGraphModel dx="1869" dy="561" grid="1" gridSize="10" guides="1" tooltips="1" connect="1" arrows="1" fold="1" page="1" pageScale="1" pageWidth="827" pageHeight="1169" math="0" shadow="0">
      <root>
        <mxCell id="0" />
        <mxCell id="1" parent="0" />
        <mxCell id="93PrXyJmW7tbFm8o_D-c-6" style="edgeStyle=orthogonalEdgeStyle;rounded=0;orthogonalLoop=1;jettySize=auto;html=1;exitX=0.5;exitY=1;exitDx=0;exitDy=0;entryX=0.5;entryY=0;entryDx=0;entryDy=0;" edge="1" parent="1" source="93PrXyJmW7tbFm8o_D-c-2" target="93PrXyJmW7tbFm8o_D-c-4">
          <mxGeometry relative="1" as="geometry" />
        </mxCell>
        <mxCell id="93PrXyJmW7tbFm8o_D-c-14" value="Auth" style="edgeLabel;html=1;align=center;verticalAlign=middle;resizable=0;points=[];" vertex="1" connectable="0" parent="93PrXyJmW7tbFm8o_D-c-6">
          <mxGeometry x="-0.08" relative="1" as="geometry">
            <mxPoint as="offset" />
          </mxGeometry>
        </mxCell>
        <mxCell id="93PrXyJmW7tbFm8o_D-c-24" style="edgeStyle=orthogonalEdgeStyle;rounded=0;orthogonalLoop=1;jettySize=auto;html=1;exitX=0;exitY=0.5;exitDx=0;exitDy=0;entryX=1;entryY=0.5;entryDx=0;entryDy=0;" edge="1" parent="1" source="93PrXyJmW7tbFm8o_D-c-2" target="93PrXyJmW7tbFm8o_D-c-23">
          <mxGeometry relative="1" as="geometry" />
        </mxCell>
        <mxCell id="93PrXyJmW7tbFm8o_D-c-26" value="User Log" style="edgeLabel;html=1;align=center;verticalAlign=middle;resizable=0;points=[];" vertex="1" connectable="0" parent="93PrXyJmW7tbFm8o_D-c-24">
          <mxGeometry x="0.0533" y="-1" relative="1" as="geometry">
            <mxPoint as="offset" />
          </mxGeometry>
        </mxCell>
        <mxCell id="93PrXyJmW7tbFm8o_D-c-2" value="Firewall" style="rounded=1;whiteSpace=wrap;html=1;" vertex="1" parent="1">
          <mxGeometry x="280" y="440" width="120" height="60" as="geometry" />
        </mxCell>
        <mxCell id="93PrXyJmW7tbFm8o_D-c-10" style="edgeStyle=orthogonalEdgeStyle;rounded=0;orthogonalLoop=1;jettySize=auto;html=1;exitX=0.5;exitY=1;exitDx=0;exitDy=0;entryX=0.5;entryY=0;entryDx=0;entryDy=0;" edge="1" parent="1" source="93PrXyJmW7tbFm8o_D-c-3" target="93PrXyJmW7tbFm8o_D-c-9">
          <mxGeometry relative="1" as="geometry" />
        </mxCell>
        <mxCell id="93PrXyJmW7tbFm8o_D-c-17" value="Trigger" style="edgeLabel;html=1;align=center;verticalAlign=middle;resizable=0;points=[];" vertex="1" connectable="0" parent="93PrXyJmW7tbFm8o_D-c-10">
          <mxGeometry x="-0.18" relative="1" as="geometry">
            <mxPoint as="offset" />
          </mxGeometry>
        </mxCell>
        <mxCell id="93PrXyJmW7tbFm8o_D-c-25" style="edgeStyle=orthogonalEdgeStyle;rounded=0;orthogonalLoop=1;jettySize=auto;html=1;exitX=0.5;exitY=0;exitDx=0;exitDy=0;entryX=0.5;entryY=1;entryDx=0;entryDy=0;" edge="1" parent="1" source="93PrXyJmW7tbFm8o_D-c-3" target="93PrXyJmW7tbFm8o_D-c-23">
          <mxGeometry relative="1" as="geometry" />
        </mxCell>
        <mxCell id="93PrXyJmW7tbFm8o_D-c-27" value="User" style="edgeLabel;html=1;align=center;verticalAlign=middle;resizable=0;points=[];" vertex="1" connectable="0" parent="93PrXyJmW7tbFm8o_D-c-25">
          <mxGeometry x="0.016" y="1" relative="1" as="geometry">
            <mxPoint as="offset" />
          </mxGeometry>
        </mxCell>
        <mxCell id="93PrXyJmW7tbFm8o_D-c-3" value="PrivacyIdea" style="rounded=1;whiteSpace=wrap;html=1;" vertex="1" parent="1">
          <mxGeometry x="40" y="600" width="120" height="60" as="geometry" />
        </mxCell>
        <mxCell id="93PrXyJmW7tbFm8o_D-c-7" style="edgeStyle=orthogonalEdgeStyle;rounded=0;orthogonalLoop=1;jettySize=auto;html=1;exitX=0;exitY=0.5;exitDx=0;exitDy=0;entryX=1;entryY=0.5;entryDx=0;entryDy=0;" edge="1" parent="1" source="93PrXyJmW7tbFm8o_D-c-4" target="93PrXyJmW7tbFm8o_D-c-3">
          <mxGeometry relative="1" as="geometry" />
        </mxCell>
        <mxCell id="93PrXyJmW7tbFm8o_D-c-16" value="Enroll User" style="edgeLabel;html=1;align=center;verticalAlign=middle;resizable=0;points=[];" vertex="1" connectable="0" parent="93PrXyJmW7tbFm8o_D-c-7">
          <mxGeometry x="-0.03" relative="1" as="geometry">
            <mxPoint as="offset" />
          </mxGeometry>
        </mxCell>
        <mxCell id="93PrXyJmW7tbFm8o_D-c-8" style="edgeStyle=orthogonalEdgeStyle;rounded=0;orthogonalLoop=1;jettySize=auto;html=1;exitX=0.5;exitY=1;exitDx=0;exitDy=0;entryX=0.5;entryY=0;entryDx=0;entryDy=0;" edge="1" parent="1" source="93PrXyJmW7tbFm8o_D-c-4" target="93PrXyJmW7tbFm8o_D-c-5">
          <mxGeometry relative="1" as="geometry" />
        </mxCell>
        <mxCell id="93PrXyJmW7tbFm8o_D-c-15" value="Penyimpanan&lt;br&gt;Akun" style="edgeLabel;html=1;align=center;verticalAlign=middle;resizable=0;points=[];" vertex="1" connectable="0" parent="93PrXyJmW7tbFm8o_D-c-8">
          <mxGeometry x="-0.16" y="-1" relative="1" as="geometry">
            <mxPoint as="offset" />
          </mxGeometry>
        </mxCell>
        <mxCell id="93PrXyJmW7tbFm8o_D-c-4" value="Radius" style="rounded=1;whiteSpace=wrap;html=1;" vertex="1" parent="1">
          <mxGeometry x="280" y="600" width="120" height="60" as="geometry" />
        </mxCell>
        <mxCell id="93PrXyJmW7tbFm8o_D-c-5" value="LDAP" style="rounded=1;whiteSpace=wrap;html=1;" vertex="1" parent="1">
          <mxGeometry x="280" y="760" width="120" height="60" as="geometry" />
        </mxCell>
        <mxCell id="93PrXyJmW7tbFm8o_D-c-9" value="OTP" style="rounded=1;whiteSpace=wrap;html=1;" vertex="1" parent="1">
          <mxGeometry x="40" y="760" width="120" height="60" as="geometry" />
        </mxCell>
        <mxCell id="93PrXyJmW7tbFm8o_D-c-18" value="- jumlah user login (active)&amp;nbsp;&lt;div&gt;- jumlah user unique&lt;/div&gt;&lt;div&gt;- list user unique&lt;br&gt;- last login user unique&lt;/div&gt;&lt;div&gt;- jumlah gagal login&lt;/div&gt;&lt;div&gt;- jumlah berhasil login&lt;/div&gt;&lt;div&gt;- jumlah login berdasarkan waktu&lt;/div&gt;" style="text;html=1;align=left;verticalAlign=middle;whiteSpace=wrap;rounded=0;" vertex="1" parent="1">
          <mxGeometry x="180" y="310" width="180" height="110" as="geometry" />
        </mxCell>
        <mxCell id="93PrXyJmW7tbFm8o_D-c-21" value="- login&lt;div&gt;- logout&lt;/div&gt;&lt;div&gt;- session manage&lt;/div&gt;&lt;div&gt;- dashboard&lt;/div&gt;" style="text;html=1;align=left;verticalAlign=middle;whiteSpace=wrap;rounded=0;" vertex="1" parent="1">
          <mxGeometry x="-140" y="290" width="180" height="130" as="geometry" />
        </mxCell>
        <mxCell id="93PrXyJmW7tbFm8o_D-c-22" value="FrontEnd" style="rounded=1;whiteSpace=wrap;html=1;" vertex="1" parent="1">
          <mxGeometry x="40" y="320" width="120" height="60" as="geometry" />
        </mxCell>
        <mxCell id="93PrXyJmW7tbFm8o_D-c-28" style="edgeStyle=orthogonalEdgeStyle;rounded=0;orthogonalLoop=1;jettySize=auto;html=1;exitX=0.5;exitY=0;exitDx=0;exitDy=0;entryX=0.5;entryY=1;entryDx=0;entryDy=0;" edge="1" parent="1" source="93PrXyJmW7tbFm8o_D-c-23" target="93PrXyJmW7tbFm8o_D-c-22">
          <mxGeometry relative="1" as="geometry" />
        </mxCell>
        <mxCell id="93PrXyJmW7tbFm8o_D-c-23" value="BackEnd" style="rounded=1;whiteSpace=wrap;html=1;" vertex="1" parent="1">
          <mxGeometry x="40" y="440" width="120" height="60" as="geometry" />
        </mxCell>
      </root>
    </mxGraphModel>
  </diagram>
</mxfile>
